HIERARCHY
ROOT Hips
{
	OFFSET -0.001795 -0.223333 0.028219
	CHANNELS 6 Xposition Yposition Zposition Zrotation Yrotation Xrotation 
	JOINT LeftUpLeg
	{
		OFFSET 0.069520 -0.091406 -0.006815
		CHANNELS 3 Zrotation Yrotation Xrotation
		JOINT LeftLeg
		{
			OFFSET 0.034277 -0.375199 -0.004496
			CHANNELS 3 Zrotation Yrotation Xrotation
			JOINT LeftFoot
			{
				OFFSET -0.013596 -0.397961 -0.043693
				CHANNELS 3 Zrotation Yrotation Xrotation
				JOINT LeftToe
				{
					OFFSET 0.026358 -0.055791 0.119288
					CHANNELS 3 Zrotation Yrotation Xrotation
					End Site
					{
						OFFSET 0.000000 0.000000 0.000000
					}
				}
			}
		}
	}
	JOINT RightUpLeg
	{
		OFFSET -0.067670 -0.090522 -0.004320
		CHANNELS 3 Zrotation Yrotation Xrotation
		JOINT RightLeg
		{
			OFFSET -0.038290 -0.382569 -0.008850
			CHANNELS 3 Zrotation Yrotation Xrotation
			JOINT RightFoot
			{
				OFFSET 0.015774 -0.398415 -0.042312
				CHANNELS 3 Zrotation Yrotation Xrotation
				JOINT RightToe
				{
					OFFSET -0.025372 -0.048144 0.123348
					CHANNELS 3 Zrotation Yrotation Xrotation
					End Site
					{
						OFFSET 0.000000 0.000000 0.000000
					}
				}
			}
		}
	}
	JOINT Spine
	{
		OFFSET -0.002533 0.108963 -0.026696
		CHANNELS 3 Zrotation Yrotation Xrotation
		JOINT Spine1
		{
			OFFSET 0.005487 0.135180 0.001092
			CHANNELS 3 Zrotation Yrotation Xrotation
			JOINT Spine2
			{
				OFFSET 0.001457 0.052922 0.025425
				CHANNELS 3 Zrotation Yrotation Xrotation
				JOINT Neck
				{
					OFFSET -0.002778 0.213870 -0.042857
					CHANNELS 3 Zrotation Yrotation Xrotation
					JOINT Head
					{
						OFFSET 0.005152 0.064970 0.051349
						CHANNELS 3 Zrotation Yrotation Xrotation
						End Site
						{
							OFFSET 0.000000 0.000000 0.000000
						}
					}
				}
				JOINT LeftShoulder
				{
					OFFSET 0.078845 0.121749 -0.034090
					CHANNELS 3 Zrotation Yrotation Xrotation
					JOINT LeftArm
					{
						OFFSET 0.090977 0.030469 -0.008868
						CHANNELS 3 Zrotation Yrotation Xrotation
						JOINT LeftForeArm
						{
							OFFSET 0.259612 -0.012772 -0.027456
							CHANNELS 3 Zrotation Yrotation Xrotation
							JOINT LeftHand
							{
								OFFSET 0.249234 0.008986 -0.001171
								CHANNELS 3 Zrotation Yrotation Xrotation
								End Site
								{
									OFFSET 0.000000 0.000000 0.000000
								}
							}
						}
					}
				}
				JOINT RightShoulder
				{
					OFFSET -0.081759 0.118833 -0.038615
					CHANNELS 3 Zrotation Yrotation Xrotation
					JOINT RightArm
					{
						OFFSET -0.096012 0.032551 -0.009143
						CHANNELS 3 Zrotation Yrotation Xrotation
						JOINT RightForeArm
						{
							OFFSET -0.253742 -0.013329 -0.021401
							CHANNELS 3 Zrotation Yrotation Xrotation
							JOINT RightHand
							{
								OFFSET -0.255298 0.007772 -0.005559
								CHANNELS 3 Zrotation Yrotation Xrotation
								End Site
								{
									OFFSET 0.000000 0.000000 0.000000
								}
							}
						}
					}
				}
			}
		}
	}
}
MOTION
Frames: 11
Frame Time: 0.050000
-0.301965 0.953319 0.778358 -2.782240 17.460137 -1.616349 3.424152 -0.429756 -4.971685 -3.340126 0.026635 8.338319 4.486791 10.526769 3.923322 0.000000 0.000000 0.000000 3.687839 0.462459 -3.276690 0.734478 -0.043651 4.683104 -3.479899 -9.279565 8.460234 0.000000 0.000000 0.000000 -4.197341 -0.251171 11.009240 7.282415 -1.297208 -18.692496 1.704585 2.187856 26.308612 2.202967 2.659272 -30.207450 0.000000 0.000000 0.000000 -21.416787 -4.392073 -2.761146 -43.441927 -18.729395 0.338782 -138.958899 -84.881946 136.170318 0.000000 0.000000 0.000000 10.445587 14.392387 7.982490 37.399821 18.214373 -0.424871 -154.576820 81.441149 -137.611787 0.000000 0.000000 0.000000 
-0.302225 0.954057 0.771308 -2.805190 17.846891 -1.541262 3.410504 -0.419211 -4.769792 -2.892805 -0.003788 7.477221 4.021693 9.943210 4.447933 0.000000 0.000000 0.000000 3.268705 0.502422 -3.680114 0.926641 -0.085985 3.960333 -3.667452 -9.653485 9.844461 0.000000 0.000000 0.000000 -4.313004 -0.239328 10.860024 7.265996 -1.262689 -18.948804 1.953757 2.104842 26.367591 1.889422 2.861002 -30.405341 0.000000 0.000000 0.000000 -21.442659 -4.847849 -2.569834 -43.855093 -19.554488 0.636639 -141.961516 -85.449624 139.731570 0.000000 0.000000 0.000000 10.498884 14.691557 8.163306 38.202384 18.422744 -0.313529 -153.055559 82.132068 -136.250105 0.000000 0.000000 0.000000 
-0.301718 0.954774 0.766037 -2.699985 18.128330 -1.475394 3.209791 -0.389028 -4.306256 -2.496309 -0.007983 6.282062 3.615112 9.429909 4.877925 0.000000 0.000000 0.000000 2.784450 0.525825 -4.007172 0.929111 -0.090917 3.601656 -3.795129 -9.885559 10.412390 0.000000 0.000000 0.000000 -4.351205 -0.232171 10.720839 7.164144 -1.206248 -19.141566 2.131045 1.913697 26.432254 1.658635 2.985854 -30.520785 0.000000 0.000000 0.000000 -22.134691 -5.222657 -2.506855 -43.772932 -19.429289 0.630685 -140.990511 -85.325132 138.695417 0.000000 0.000000 0.000000 11.069473 14.822225 8.377723 38.944579 18.556438 -0.267998 -154.958804 83.099401 -139.023283 0.000000 0.000000 0.000000 
-0.300699 0.955462 0.762377 -2.741516 18.584141 -1.491467 3.051725 -0.342233 -3.566757 -1.983676 -0.014964 4.898654 3.112293 8.801068 5.387949 0.000000 0.000000 0.000000 2.466603 0.534858 -4.180786 0.940904 -0.100654 2.986291 -4.038393 -10.322579 11.167419 0.000000 0.000000 0.000000 -4.479571 -0.215117 10.403794 7.343200 -1.255646 -19.103229 2.152458 1.729711 26.330075 1.181279 3.261589 -30.768946 0.000000 0.000000 0.000000 -22.514442 -5.457856 -2.497216 -44.094254 -19.086854 0.567410 -137.567071 -85.430237 135.114206 0.000000 0.000000 0.000000 11.665209 15.205347 8.739336 39.950590 18.473704 -0.257744 -153.316420 84.133926 -137.868728 0.000000 0.000000 0.000000 
-0.299495 0.956010 0.760120 -2.709847 18.602475 -1.466430 2.936013 -0.306182 -3.013854 -1.677156 -0.001360 3.728408 2.793168 8.486456 5.895543 0.000000 0.000000 0.000000 2.257592 0.489207 -3.858342 0.767957 -0.074078 2.646971 -3.945739 -10.136411 11.153226 0.000000 0.000000 0.000000 -4.641566 -0.189064 10.029630 7.541544 -1.323170 -19.036272 2.207695 1.521455 26.278031 1.016898 3.299376 -30.517478 0.000000 0.000000 0.000000 -22.659127 -5.321703 -2.534111 -44.631245 -18.119847 0.224521 -131.579006 -84.912651 128.499212 0.000000 0.000000 0.000000 12.064401 15.377440 8.891657 40.939513 18.499592 -0.190562 -155.456565 85.324611 -141.046885 0.000000 0.000000 0.000000 
-0.298382 0.956386 0.759091 -2.651790 18.814094 -1.344679 2.847072 -0.276525 -2.529634 -1.518300 0.020979 2.668686 2.415398 8.047132 6.314287 0.000000 0.000000 0.000000 1.985931 0.451364 -3.618710 0.786466 -0.080247 2.471067 -3.964118 -10.153252 11.538738 0.000000 0.000000 0.000000 -5.008544 -0.146178 9.472597 7.700840 -1.364229 -19.102190 2.302793 1.202640 26.537504 0.657370 3.472849 -30.767102 0.000000 0.000000 0.000000 -22.707806 -5.064404 -2.630595 -44.904666 -17.956179 0.131805 -124.355521 -84.800987 120.881305 0.000000 0.000000 0.000000 12.334273 15.781589 9.139190 41.916488 18.669167 -0.090554 -142.385621 86.541111 -128.157568 0.000000 0.000000 0.000000 
-0.297452 0.956403 0.758877 -2.631251 18.786314 -1.387659 2.821376 -0.232956 -1.784845 -1.397925 0.042939 1.709457 2.232583 7.830191 6.525263 0.000000 0.000000 0.000000 1.949394 0.380944 -3.014756 0.509710 -0.037285 2.198446 -3.956276 -10.148734 11.677922 0.000000 0.000000 0.000000 -5.261622 -0.120505 9.117924 7.755743 -1.399119 -18.905495 2.472524 1.097946 26.585807 0.089949 3.732723 -30.453352 0.000000 0.000000 0.000000 -22.563869 -4.780090 -2.716740 -44.984712 -17.689858 0.006636 -123.960189 -85.170227 120.833990 0.000000 0.000000 0.000000 12.792631 15.960281 9.332191 42.551819 18.786579 -0.038968 -124.150471 87.048136 -109.843815 0.000000 0.000000 0.000000 
-0.296711 0.956079 0.759140 -2.515358 18.459081 -1.511953 2.801251 -0.185716 -0.974617 -1.381830 0.070372 0.810050 2.010941 7.578971 6.829126 0.000000 0.000000 0.000000 1.785046 0.304538 -2.405842 0.399567 -0.023670 1.847818 -3.891163 -10.070654 11.606968 0.000000 0.000000 0.000000 -5.652620 -0.092027 8.914502 7.884509 -1.442853 -19.001639 2.589125 1.378869 26.917555 -0.160622 3.893335 -30.636458 0.000000 0.000000 0.000000 -22.509599 -4.853320 -2.681252 -44.314218 -17.396355 -0.121792 -125.970564 -86.760509 124.228947 0.000000 0.000000 0.000000 13.578756 16.251357 9.707337 42.390753 19.322691 0.058202 -92.518268 86.134417 -77.161564 0.000000 0.000000 0.000000 
-0.296203 0.955683 0.759377 -2.623827 18.292158 -1.558763 2.892728 -0.153894 -0.284912 -1.354896 0.096768 -0.244024 2.001291 7.753528 7.284552 0.000000 0.000000 0.000000 1.865759 0.246064 -1.894050 0.298168 -0.015077 1.426349 -3.974320 -10.265444 11.547394 0.000000 0.000000 0.000000 -5.835794 -0.075527 8.627439 7.798584 -1.416902 -19.041725 2.726129 1.168598 27.072992 -0.254749 3.902842 -30.731272 0.000000 0.000000 0.000000 -22.390861 -4.903960 -2.523432 -43.609493 -18.055366 0.049459 -52.331993 -89.760796 53.159435 0.000000 0.000000 0.000000 13.835286 16.691547 9.943357 42.078416 20.112784 0.284079 -75.665358 83.893539 -58.824241 0.000000 0.000000 0.000000 
-0.296079 0.955231 0.759259 -2.663842 17.923682 -1.626028 2.970255 -0.128242 0.275766 -1.241472 0.106747 -0.919069 2.192671 8.106895 7.436347 0.000000 0.000000 0.000000 1.868418 0.221017 -1.690850 0.221696 -0.006555 1.220563 -3.987104 -10.340706 11.498450 0.000000 0.000000 0.000000 -6.053200 -0.061450 8.577060 7.932308 -1.463881 -19.130476 2.585072 1.175028 27.278543 -0.368828 3.947039 -31.192581 0.000000 0.000000 0.000000 -22.511516 -5.219701 -2.289119 -42.448506 -19.166437 0.382099 52.069429 -85.988454 -47.903610 0.000000 0.000000 0.000000 13.954297 17.636766 10.396792 41.120313 21.575181 0.705887 -69.194227 79.837567 -49.607455 0.000000 0.000000 0.000000 
-0.296450 0.955053 0.758583 -2.784006 17.956204 -1.728607 3.160410 -0.134347 0.369132 -1.311655 0.114002 -1.061817 2.516612 8.760431 7.741012 0.000000 0.000000 0.000000 1.991101 0.211141 -1.585124 0.215906 -0.005878 1.214749 -4.195448 -10.757293 11.587426 0.000000 0.000000 0.000000 -6.095445 -0.061122 8.550585 7.903625 -1.461703 -19.057785 2.486590 0.755496 27.272523 -0.327906 3.870814 -31.427014 0.000000 0.000000 0.000000 -22.205700 -6.019722 -1.650099 -41.704779 -20.978321 0.903905 50.959534 -80.332134 -42.682332 0.000000 0.000000 0.000000 13.897979 18.478012 10.718706 39.847345 23.200948 1.142972 -66.549888 75.040128 -43.808815 0.000000 0.000000 0.000000 
